<svg viewBox="0 0 5200 970" xmlns="http://www.w3.org/2000/svg" xmlns:xlink="http://www.w3.org/1999/xlink" width="5200.000000" height="970.000000" fill="none" customFrame="#000000">
	<path id="" d="M65.1897 678.027L65.1897 441.992L89.2131 441.992L89.2131 678.027L65.1897 678.027ZM111.186 700.391L111.186 419.629L43.217 419.629L43.217 700.391L111.186 700.391ZM33.1584 710.352L33.1584 409.57L121.244 409.57L160.014 450.781L160.014 749.219L74.3694 749.219L33.1584 710.352ZM575.191 678.027L359.566 479.98L359.566 678.027L336.031 678.027L336.031 441.992L356.441 441.992L571.187 640.039L571.187 441.992L595.211 441.992L595.211 678.027L575.191 678.027ZM617.574 700.391L617.574 419.629L549.215 419.629L549.215 589.648L363.961 419.629L313.57 419.629L313.57 700.391L382.027 700.391L382.027 529.98L567.574 700.391L617.574 700.391ZM303.609 710.352L303.609 409.57L367.574 409.57L539.156 566.797L539.156 409.57L627.633 409.57L666.402 450.781L666.402 749.219L604 749.219L430.758 590.43L430.758 749.219L344.82 749.219L303.609 710.352ZM963.248 678.027L963.248 466.406L829.166 466.406L829.166 441.992L1121.65 441.992L1121.65 466.406L987.173 466.406L987.173 678.027L963.248 678.027ZM1009.24 700.391L1009.24 488.77L1143.62 488.77L1143.62 419.629L807.193 419.629L807.193 488.77L941.177 488.77L941.177 700.391L1009.24 700.391ZM797.232 498.828L797.232 409.57L1153.58 409.57L1192.45 450.781L1192.45 537.598L1057.97 537.598L1057.97 749.219L972.427 749.219L931.216 710.352L931.216 537.598L838.443 537.598L797.232 498.828ZM1373.22 548.047L1576.83 548.047L1576.83 571.973L1373.22 571.973L1373.22 653.613L1618.43 653.613L1618.43 678.027L1348.41 678.027L1348.41 441.992L1618.04 441.992L1618.04 466.406L1373.22 466.406L1373.22 548.047ZM1395.19 488.77L1640.4 488.77L1640.4 419.629L1325.95 419.629L1325.95 700.391L1640.8 700.391L1640.8 631.152L1395.19 631.152L1395.19 594.043L1598.8 594.043L1598.8 525.977L1395.19 525.977L1395.19 488.77ZM1315.99 710.352L1315.99 409.57L1650.37 409.57L1689.23 450.781L1689.23 537.598L1628 537.598L1647.63 557.227L1647.63 621.191L1689.62 662.402L1689.62 749.219L1357.2 749.219L1315.99 710.352ZM2054.84 488.77Q2059.63 488.77 2064.8 489.648Q2069.98 490.43 2074.37 492.48Q2078.77 494.434 2081.79 498.047Q2084.82 501.562 2084.82 507.617Q2084.82 513.184 2081.6 516.797Q2078.38 520.41 2073.79 522.461Q2069.2 524.414 2063.73 525.195Q2058.36 525.977 2054.35 525.977L1906.4 525.977L1906.4 488.77L2054.84 488.77ZM2054.35 548.047Q2064.02 548.047 2073.4 545.801Q2082.77 543.555 2090.39 538.77Q2098 533.984 2102.59 526.172Q2107.18 518.359 2107.18 507.617Q2107.18 496.387 2102.79 488.379Q2098.4 480.371 2090.97 475.586Q2083.55 470.801 2074.18 468.652Q2064.8 466.406 2054.84 466.406L1884.43 466.406L1884.43 548.047L2054.35 548.047ZM2090.78 566.016Q2085.21 569.238 2078.38 570.801Q2071.64 572.363 2065.58 574.023Q2088.04 600.391 2110.6 625.977Q2133.16 651.562 2156.01 678.027L2123.59 678.027L2031.21 571.973L1884.43 571.973L1884.43 678.027L1859.63 678.027L1859.63 441.992L2054.84 441.992Q2071.25 441.992 2085.41 445.605Q2099.57 449.219 2109.72 457.227Q2119.98 465.234 2125.74 477.637Q2131.6 490.039 2131.6 507.617Q2131.6 529.59 2121.54 543.848Q2111.58 558.008 2091.17 566.016L2090.78 566.016ZM2153.96 507.617Q2153.96 484.766 2146.73 468.164Q2139.61 451.562 2126.42 440.82Q2113.24 429.98 2094.98 424.805Q2076.81 419.629 2054.84 419.629L1838.04 419.629L1838.04 700.391L1906.4 700.391L1906.4 594.043L2020.76 594.043L2112.75 700.391L2204.84 700.391L2103.96 584.766Q2153.96 562.793 2153.96 507.617ZM1827.98 710.352L1827.98 409.57L2054.84 409.57Q2070.37 409.57 2084.72 411.816Q2099.18 413.965 2113.73 420.801Q2128.38 427.637 2144.2 440.43Q2160.02 453.223 2177.98 474.414Q2189.61 486.035 2196.15 505.469Q2202.79 524.805 2202.79 547.559Q2202.79 574.023 2191.36 594.434Q2180.04 614.844 2158.36 627.637Q2170.76 641.992 2184.33 657.617Q2198 673.242 2211.58 689.062Q2225.15 704.785 2238.53 720.215Q2252.01 735.645 2264.02 749.219L2148.79 749.219L2108.36 710.352L2049.96 642.773L1955.23 642.773L1955.23 749.219L1869.2 749.219L1827.98 710.352ZM2655.16 591.211L2570.79 471.582L2484.36 591.211L2655.16 591.211ZM2612 569.629L2527.23 569.629L2570 509.57L2612 569.629ZM2714.83 678.027L2671.57 616.016L2467.17 616.016Q2456.04 631.152 2445.4 646.973Q2434.85 662.793 2423.62 678.027L2391.59 678.027Q2433.97 618.359 2476.16 559.961Q2518.44 501.562 2560.43 441.992L2579.57 441.992L2744.81 678.027L2714.83 678.027ZM2549.59 419.629L2349.59 700.391L2434.36 700.391L2478.4 638.379L2659.16 638.379L2702.82 700.391L2787.58 700.391L2591.59 419.629L2549.59 419.629ZM2636.41 450.781L2844.42 749.219L2737.97 749.219L2697.64 710.352L2681.24 687.207L2523.23 687.207Q2518.44 694.434 2512.58 702.344Q2506.82 710.352 2500.96 718.555Q2495.2 726.758 2489.54 734.57Q2483.97 742.383 2479.18 749.219L2372.45 749.219L2329.97 710.352L2544.42 409.57L2596.76 409.57L2636.41 450.781ZM3042.36 466.406Q3018.83 466.406 2998.61 471.387Q2978.4 476.367 2963.55 487.402Q2948.81 498.438 2940.21 516.406Q2931.62 534.375 2931.62 559.961Q2931.62 586.035 2940.21 603.809Q2948.81 621.582 2963.55 632.812Q2978.4 644.043 2998.61 648.828Q3018.83 653.613 3042.36 653.613L3086.02 653.613Q3114.04 653.613 3140.61 645.02Q3167.17 636.426 3186.41 614.844L3211.99 630.762Q3200.76 646.387 3186.31 655.859Q3171.95 665.234 3155.55 670.02Q3139.24 674.805 3121.37 676.465Q3103.59 678.027 3086.02 678.027L3042.36 678.027Q3013.16 678.027 2988.16 671.875Q2963.16 665.625 2945 651.465Q2926.84 637.207 2916.58 614.844Q2906.43 592.383 2906.43 559.961Q2906.43 527.637 2916.58 505.273Q2926.84 482.812 2945 468.652Q2963.16 454.395 2988.16 448.242Q3013.16 441.992 3042.36 441.992L3086.02 441.992Q3103.59 441.992 3121.37 443.652Q3139.24 445.215 3155.55 450Q3171.95 454.785 3186.31 464.258Q3200.76 473.633 3211.99 489.16L3186.41 505.176Q3167.17 483.594 3140.61 475Q3114.04 466.406 3086.02 466.406L3042.36 466.406ZM3086.02 488.77Q3114.82 488.77 3138.75 499.414Q3162.77 509.961 3179.57 533.984L3243.24 496.387Q3229.57 473.242 3212.77 458.203Q3195.98 443.164 3176.15 434.57Q3156.43 425.977 3133.77 422.852Q3111.21 419.629 3086.02 419.629L3042.36 419.629Q3007.6 419.629 2978.59 427.441Q2949.59 435.156 2928.59 452.051Q2907.6 468.848 2895.78 495.41Q2883.96 521.973 2883.96 559.961Q2883.96 598.047 2895.78 624.609Q2907.6 651.172 2928.59 667.969Q2949.59 684.766 2978.59 692.578Q3007.6 700.391 3042.36 700.391L3086.02 700.391Q3111.21 700.391 3133.77 697.266Q3156.43 694.043 3176.15 685.449Q3195.98 676.758 3212.77 662.012Q3229.57 647.168 3243.24 623.633L3179.57 586.035Q3162.77 609.961 3138.75 620.605Q3114.82 631.152 3086.02 631.152L3042.36 631.152Q3024.39 631.152 3008.38 627.637Q2992.36 624.023 2980.35 615.82Q2968.44 607.617 2961.21 594.043Q2953.98 580.371 2953.98 559.961Q2953.98 540.039 2961.21 526.465Q2968.44 512.793 2980.55 504.395Q2992.75 495.996 3008.77 492.383Q3024.79 488.77 3042.36 488.77L3086.02 488.77ZM2944.02 705.566Q2921.17 685.645 2907.6 668.262Q2894.02 650.781 2886.41 633.789Q2878.79 616.797 2876.35 598.828Q2874 580.762 2874 559.961Q2874 519.238 2886.41 490.625Q2898.81 462.012 2921.17 444.043Q2943.63 425.977 2974.59 417.773Q3005.64 409.57 3042.36 409.57L3086.02 409.57Q3108.77 409.57 3129.77 411.426Q3150.76 413.184 3171.56 421.191Q3192.36 429.199 3213.95 445.215Q3235.62 461.23 3260.43 489.648Q3264.43 494.043 3269.22 500Q3274 505.957 3278.4 512.793Q3282.79 519.629 3287.19 526.66Q3291.58 533.594 3295.2 539.648L3217.17 585.645L3186.8 555.176Q3172.83 545.996 3157.6 541.797Q3142.36 537.598 3125.96 537.598L3082.4 537.598Q3066.39 537.598 3051.93 540.82Q3037.58 544.043 3026.54 551.27Q3015.61 558.398 3009.16 570.41Q3002.81 582.422 3002.81 600Q3002.81 609.57 3004.38 616.016Q3012.77 618.848 3022.34 620.02Q3032.01 621.191 3042.36 621.191L3086.02 621.191Q3112.38 621.191 3135.72 610.059Q3159.16 598.828 3177.23 572.754L3257.21 620.02L3295.2 660.352Q3279.18 687.598 3260.53 704.785Q3241.97 721.973 3220.78 731.738Q3199.59 741.602 3175.96 745.41Q3152.42 749.219 3125.96 749.219L3082.4 749.219Q3061.99 749.219 3042.17 746.582Q3022.44 744.043 3004.18 738.574Q2986.02 733.203 2970.59 725Q2955.16 716.797 2944.02 705.566ZM3551.25 678.027L3551.25 466.406L3417.17 466.406L3417.17 441.992L3709.65 441.992L3709.65 466.406L3575.17 466.406L3575.17 678.027L3551.25 678.027ZM3597.24 700.391L3597.24 488.77L3731.62 488.77L3731.62 419.629L3395.19 419.629L3395.19 488.77L3529.18 488.77L3529.18 700.391L3597.24 700.391ZM3385.23 498.828L3385.23 409.57L3741.58 409.57L3780.45 450.781L3780.45 537.598L3645.97 537.598L3645.97 749.219L3560.43 749.219L3519.22 710.352L3519.22 537.598L3426.44 537.598L3385.23 498.828ZM3927.19 678.027L3927.19 441.992L3951.21 441.992L3951.21 678.027L3927.19 678.027ZM3973.19 700.391L3973.19 419.629L3905.22 419.629L3905.22 700.391L3973.19 700.391ZM3895.16 710.352L3895.16 409.57L3983.24 409.57L4022.01 450.781L4022.01 749.219L3936.37 749.219L3895.16 710.352ZM4352.43 678.027Q4310.04 618.359 4267.95 559.961Q4225.96 501.562 4183.58 441.992L4215.61 441.992L4362.78 648.438Q4399.2 596.777 4434.95 545.41Q4470.79 494.043 4506.82 441.992L4536.8 441.992L4371.57 678.027L4352.43 678.027ZM4494.81 419.629Q4461.61 467.578 4428.79 515.234Q4395.98 562.793 4362 610.352L4226.35 419.629L4141.59 419.629L4341.59 700.391L4383.58 700.391L4579.58 419.629L4494.81 419.629ZM4636.41 450.781L4428.4 749.219L4376.84 749.219L4336.41 710.352L4121.96 409.57L4239.63 409.57L4271.18 450.781L4366.78 586.426Q4379.18 569.238 4391.78 551.074Q4404.38 532.812 4418.93 511.816Q4433.58 490.82 4450.77 465.82Q4467.95 440.82 4489.63 409.57L4598.42 409.57L4636.41 450.781ZM4794.42 548.047L4998.03 548.047L4998.03 571.973L4794.42 571.973L4794.42 653.613L5039.63 653.613L5039.63 678.027L4769.61 678.027L4769.61 441.992L5039.24 441.992L5039.24 466.406L4794.42 466.406L4794.42 548.047ZM4816.39 488.77L5061.6 488.77L5061.6 419.629L4747.15 419.629L4747.15 700.391L5062 700.391L5062 631.152L4816.39 631.152L4816.39 594.043L5020 594.043L5020 525.977L4816.39 525.977L4816.39 488.77ZM4737.19 710.352L4737.19 409.57L5071.57 409.57L5110.43 450.781L5110.43 537.598L5049.2 537.598L5068.83 557.227L5068.83 621.191L5110.82 662.402L5110.82 749.219L4778.4 749.219L4737.19 710.352Z" fill="rgb(255,31,79)" fill-rule="nonzero" />
	<path id="" d="M1133.82 41.9922L1369.76 41.9922L1369.76 62.0117L1163.8 253.613L1382.55 253.613L1382.55 278.027L1121.42 278.027L1121.42 258.008L1328.16 66.4062L1133.82 66.4062L1133.82 41.9922ZM1111.36 88.7695L1272.59 88.7695L1099.35 248.438L1099.35 300.391L1404.62 300.391L1404.62 231.152L1219.76 231.152L1392.22 71.9727L1392.22 19.6289L1111.36 19.6289L1111.36 88.7695ZM1101.4 9.57031L1402.18 9.57031L1440.95 50.7812L1440.95 116.016L1326.6 221.191L1414.59 221.191L1453.36 262.402L1453.36 349.219L1130.6 349.219L1089.39 310.352L1089.39 244.043L1204.62 137.598L1142.61 137.598L1101.4 98.8281L1101.4 9.57031ZM1868.96 191.211L1784.59 71.582L1698.16 191.211L1868.96 191.211ZM1825.8 169.629L1741.03 169.629L1783.8 109.57L1825.8 169.629ZM1928.63 278.027L1885.37 216.016L1680.97 216.016Q1669.84 231.152 1659.2 246.973Q1648.65 262.793 1637.42 278.027L1605.39 278.027Q1647.77 218.359 1689.96 159.961Q1732.24 101.562 1774.23 41.9922L1793.38 41.9922L1958.61 278.027L1928.63 278.027ZM1763.39 19.6289L1563.39 300.391L1648.16 300.391L1692.2 238.379L1872.96 238.379L1916.62 300.391L2001.38 300.391L1805.39 19.6289L1763.39 19.6289ZM1850.21 50.7812L2058.22 349.219L1951.77 349.219L1911.44 310.352L1895.04 287.207L1737.03 287.207Q1732.24 294.434 1726.38 302.344Q1720.62 310.352 1714.76 318.555Q1709 326.758 1703.34 334.57Q1697.77 342.383 1692.98 349.219L1586.25 349.219L1543.77 310.352L1758.22 9.57031L1810.56 9.57031L1850.21 50.7812ZM2383.42 88.7695Q2388.2 88.7695 2393.18 89.6484Q2398.16 90.4297 2402.36 92.4805Q2406.56 94.4336 2409.39 98.0469Q2412.23 101.562 2412.23 107.617Q2412.23 113.184 2409.2 116.797Q2406.17 120.41 2401.78 122.461Q2397.38 124.414 2392.21 125.195Q2387.03 125.977 2383.03 125.977L2234.98 125.977L2234.98 88.7695L2383.42 88.7695ZM2383.03 148.047Q2392.6 148.047 2401.97 145.801Q2411.45 143.555 2418.57 138.77Q2425.8 133.984 2430.2 126.172Q2434.59 118.359 2434.59 107.617Q2434.59 96.3867 2430.39 88.5742Q2426.19 80.7617 2419.16 75.7812Q2412.23 70.8008 2402.75 68.6523Q2393.38 66.4062 2383.42 66.4062L2212.62 66.4062L2212.62 148.047L2383.03 148.047ZM2212.62 278.027L2188.2 278.027L2188.2 41.9922L2383.42 41.9922Q2399.82 41.9922 2413.79 45.8008Q2427.75 49.6094 2437.91 57.4219Q2448.16 65.2344 2453.93 77.832Q2459.79 90.4297 2459.79 107.617Q2459.79 129.59 2449.53 143.848Q2439.38 158.008 2419.36 166.016L2419.36 166.406Q2410.18 169.629 2393.77 171.191Q2377.36 172.754 2357.15 173.438Q2337.03 174.023 2314.96 174.023Q2292.99 174.023 2272.97 173.438Q2253.05 172.754 2237.03 172.363Q2221.02 171.973 2212.62 171.973L2212.62 278.027ZM2482.25 107.617Q2482.25 84.7656 2475.02 68.1641Q2467.79 51.5625 2454.8 40.8203Q2441.82 29.9805 2423.55 24.8047Q2405.39 19.6289 2383.42 19.6289L2165.84 19.6289L2165.84 300.391L2234.98 300.391L2234.98 194.043Q2244.65 194.043 2259.98 194.434Q2275.41 194.824 2293.38 195.41Q2311.45 195.996 2330.98 195.996Q2350.61 195.996 2368.77 195.215Q2387.03 194.434 2402.56 192.48Q2418.18 190.43 2428.63 186.816L2428.63 186.426Q2455 175.195 2468.57 156.055Q2482.25 136.816 2482.25 107.617ZM2155.78 310.352L2155.78 9.57031L2383.42 9.57031Q2399.04 9.57031 2413.98 11.8164Q2429.02 13.9648 2444.36 20.9961Q2459.79 28.0273 2476.19 40.8203Q2492.6 53.6133 2510.57 74.8047Q2522.19 86.4258 2526.58 105.664Q2530.98 124.805 2530.98 147.559Q2530.98 179.98 2515.94 201.172Q2501 222.363 2471.8 235.156Q2463.79 237.988 2452.75 239.844Q2441.82 241.602 2428.54 242.871Q2415.35 244.043 2400.7 244.434Q2386.15 244.824 2371.41 244.824Q2349.82 244.824 2328.63 244.824Q2307.44 244.824 2283.81 244.434L2283.81 349.219L2196.99 349.219L2155.78 310.352ZM2870.24 88.7695Q2875.03 88.7695 2880.2 89.6484Q2885.38 90.4297 2889.77 92.4805Q2894.17 94.4336 2897.19 98.0469Q2900.22 101.562 2900.22 107.617Q2900.22 113.184 2897 116.797Q2893.78 120.41 2889.19 122.461Q2884.6 124.414 2879.13 125.195Q2873.76 125.977 2869.75 125.977L2721.8 125.977L2721.8 88.7695L2870.24 88.7695ZM2869.75 148.047Q2879.42 148.047 2888.8 145.801Q2898.17 143.555 2905.79 138.77Q2913.4 133.984 2917.99 126.172Q2922.58 118.359 2922.58 107.617Q2922.58 96.3867 2918.19 88.3789Q2913.8 80.3711 2906.37 75.5859Q2898.95 70.8008 2889.58 68.6523Q2880.2 66.4062 2870.24 66.4062L2699.83 66.4062L2699.83 148.047L2869.75 148.047ZM2906.18 166.016Q2900.61 169.238 2893.78 170.801Q2887.04 172.363 2880.98 174.023Q2903.44 200.391 2926 225.977Q2948.56 251.562 2971.41 278.027L2938.99 278.027L2846.61 171.973L2699.83 171.973L2699.83 278.027L2675.03 278.027L2675.03 41.9922L2870.24 41.9922Q2886.65 41.9922 2900.81 45.6055Q2914.97 49.2188 2925.12 57.2266Q2935.38 65.2344 2941.14 77.6367Q2947 90.0391 2947 107.617Q2947 129.59 2936.94 143.848Q2926.98 158.008 2906.57 166.016L2906.18 166.016ZM2969.36 107.617Q2969.36 84.7656 2962.14 68.1641Q2955.01 51.5625 2941.82 40.8203Q2928.64 29.9805 2910.38 24.8047Q2892.21 19.6289 2870.24 19.6289L2653.44 19.6289L2653.44 300.391L2721.8 300.391L2721.8 194.043L2836.16 194.043L2928.15 300.391L3020.24 300.391L2919.36 184.766Q2969.36 162.793 2969.36 107.617ZM2643.39 310.352L2643.39 9.57031L2870.24 9.57031Q2885.77 9.57031 2900.12 11.8164Q2914.58 13.9648 2929.13 20.8008Q2943.78 27.6367 2959.6 40.4297Q2975.42 53.2227 2993.39 74.4141Q3005.01 86.0352 3011.55 105.469Q3018.19 124.805 3018.19 147.559Q3018.19 174.023 3006.76 194.434Q2995.44 214.844 2973.76 227.637Q2986.16 241.992 2999.73 257.617Q3013.4 273.242 3026.98 289.062Q3040.55 304.785 3053.93 320.215Q3067.41 335.645 3079.42 349.219L2964.19 349.219L2923.76 310.352L2865.36 242.773L2770.63 242.773L2770.63 349.219L2684.6 349.219L2643.39 310.352ZM3441.83 148.047L3441.83 171.973L3238.22 171.973L3238.22 253.613L3483.43 253.613L3483.43 278.027L3213.41 278.027L3213.41 41.9922L3483.04 41.9922L3483.04 66.4062L3238.22 66.4062L3238.22 148.047L3441.83 148.047ZM3505.4 88.7695L3505.4 19.6289L3190.95 19.6289L3190.95 300.391L3505.8 300.391L3505.8 231.152L3260.19 231.152L3260.19 194.043L3463.8 194.043L3463.8 125.977L3260.19 125.977L3260.19 88.7695L3505.4 88.7695ZM3180.99 310.352L3180.99 9.57031L3515.37 9.57031L3554.23 50.7812L3554.23 137.598L3493 137.598L3512.63 157.227L3512.63 221.191L3554.62 262.402L3554.62 349.219L3222.2 349.219L3180.99 310.352ZM3844.65 66.4062L3710.57 66.4062L3710.57 41.9922L4003.05 41.9922L4003.05 66.4062L3868.57 66.4062L3868.57 278.027L3844.65 278.027L3844.65 66.4062ZM3890.64 88.7695L4025.02 88.7695L4025.02 19.6289L3688.59 19.6289L3688.59 88.7695L3822.58 88.7695L3822.58 300.391L3890.64 300.391L3890.64 88.7695ZM3678.63 98.8281L3678.63 9.57031L4034.98 9.57031L4073.85 50.7812L4073.85 137.598L3939.37 137.598L3939.37 349.219L3853.83 349.219L3812.62 310.352L3812.62 137.598L3719.84 137.598L3678.63 98.8281Z" fill="rgb(251,188,4)" fill-rule="nonzero" />
</svg>
