<svg viewBox="0 0 3426 970" xmlns="http://www.w3.org/2000/svg" xmlns:xlink="http://www.w3.org/1999/xlink" width="3426.000000" height="970.000000" fill="none">
	<rect id="Frame 3" width="3426.000000" height="970.000000" x="0.000000" y="0.000000" fill="rgb(255,255,255)" fill-opacity="0" />
	<path id="" d="M111.547 733.82L111.547 754.523L224.438 754.523L224.438 733.82L178.539 733.82L178.539 613.703L224.438 613.703L224.438 593L111.547 593L111.547 613.703L157.641 613.703L157.641 733.82L111.547 733.82ZM187.328 575.422Q207.055 575.422 223.07 581.281Q239.086 587.141 250.316 597.297Q261.547 607.453 267.602 621.027Q273.656 634.602 273.656 649.836L273.656 768.586Q273.656 783.82 267.602 797.395Q261.547 810.969 250.316 821.125Q239.086 831.281 223.07 837.141Q207.055 843 187.328 843L127.172 843Q107.445 843 91.4297 837.141Q75.4141 831.281 64.1836 821.125Q52.9531 810.969 46.8984 797.395Q40.8438 783.82 40.8438 768.586L40.8438 649.836Q40.8438 634.602 46.8984 621.027Q52.9531 607.453 64.1836 597.297Q75.4141 587.141 91.4297 581.281Q107.445 575.422 127.172 575.422L187.328 575.422ZM534.906 624.25L532.172 607.844L519.672 595.344L499.75 593L450.922 593L415.766 597.883L415.766 754.523L436.469 754.523L436.469 615.852L451.703 613.312L498.578 613.312L512.055 615.461L514.008 626.984L514.008 754.523L534.906 754.523L534.906 624.25ZM498.578 575.422Q518.305 575.422 534.32 581.281Q550.336 587.141 561.566 597.297Q572.797 607.453 578.852 621.027Q584.906 634.602 584.906 649.836L584.906 768.586Q584.906 783.82 578.852 797.395Q572.797 810.969 561.566 821.125Q550.336 831.281 534.32 837.141Q518.305 843 498.578 843L438.422 843Q418.695 843 402.68 837.141Q386.664 831.281 375.434 821.125Q364.203 810.969 358.148 797.395Q352.094 783.82 352.094 768.586L352.094 649.836Q352.094 634.602 358.148 621.027Q364.203 607.453 375.434 597.297Q386.664 587.141 402.68 581.281Q418.695 575.422 438.422 575.422L498.578 575.422ZM846.938 593L734.047 593L734.047 613.703L780.141 613.703L780.141 754.523L801.039 754.523L801.039 613.703L846.938 613.703L846.938 593ZM809.828 575.422Q829.555 575.422 845.57 581.281Q861.586 587.141 872.816 597.297Q884.047 607.453 890.102 621.027Q896.156 634.602 896.156 649.836L896.156 768.586Q896.156 783.82 890.102 797.395Q884.047 810.969 872.816 821.125Q861.586 831.281 845.57 837.141Q829.555 843 809.828 843L749.672 843Q729.945 843 713.93 837.141Q697.914 831.281 686.684 821.125Q675.453 810.969 669.398 797.395Q663.344 783.82 663.344 768.586L663.344 649.836Q663.344 634.602 669.398 621.027Q675.453 607.453 686.684 597.297Q697.914 587.141 713.93 581.281Q729.945 575.422 749.672 575.422L809.828 575.422ZM1152.13 733.82L1074.2 733.82L1074.2 684.211L1139.44 684.211L1139.44 663.703L1074.2 663.703L1074.2 613.703L1149.4 613.703L1149.4 593L1053.89 593L1053.89 754.523L1152.13 754.523L1152.13 733.82ZM1121.08 575.422Q1140.8 575.422 1156.82 581.281Q1172.84 587.141 1184.07 597.297Q1195.3 607.453 1201.35 621.027Q1207.41 634.602 1207.41 649.836L1207.41 768.586Q1207.41 783.82 1201.35 797.395Q1195.3 810.969 1184.07 821.125Q1172.84 831.281 1156.82 837.141Q1140.8 843 1121.08 843L1060.92 843Q1041.2 843 1025.18 837.141Q1009.16 831.281 997.934 821.125Q986.703 810.969 980.648 797.395Q974.594 783.82 974.594 768.586L974.594 649.836Q974.594 634.602 980.648 621.027Q986.703 607.453 997.934 597.297Q1009.16 587.141 1025.18 581.281Q1041.2 575.422 1060.92 575.422L1121.08 575.422ZM1432.33 575.422Q1452.05 575.422 1468.07 581.281Q1484.09 587.141 1495.32 597.297Q1506.55 607.453 1512.6 621.027Q1518.66 634.602 1518.66 649.836L1518.66 768.586Q1518.66 783.82 1512.6 797.395Q1506.55 810.969 1495.32 821.125Q1484.09 831.281 1468.07 837.141Q1452.05 843 1432.33 843L1372.17 843Q1352.45 843 1336.43 837.141Q1320.41 831.281 1309.18 821.125Q1297.95 810.969 1291.9 797.395Q1285.84 783.82 1285.84 768.586L1285.84 649.836Q1285.84 634.602 1291.9 621.027Q1297.95 607.453 1309.18 597.297Q1320.41 587.141 1336.43 581.281Q1352.45 575.422 1372.17 575.422L1432.33 575.422ZM1442.29 706.281L1442.29 754.523L1462.99 754.523L1462.99 704.133L1456.16 686.164L1433.89 678.156L1455.38 667.805L1461.43 650.227L1461.43 628.547L1459.09 612.141L1446.2 595.734L1426.66 593L1353.81 593L1353.81 754.523L1374.71 754.523L1374.71 689.484L1425.49 689.484L1439.36 695.734L1442.29 706.281ZM1425.49 613.703L1439.36 619.758L1440.73 631.086L1440.73 651.789L1437.8 662.531L1425.49 668.586L1374.71 668.586L1374.71 613.703L1425.49 613.703ZM1743.58 575.422Q1763.3 575.422 1779.32 581.281Q1795.34 587.141 1806.57 597.297Q1817.8 607.453 1823.85 621.027Q1829.91 634.602 1829.91 649.836L1829.91 768.586Q1829.91 783.82 1823.85 797.395Q1817.8 810.969 1806.57 821.125Q1795.34 831.281 1779.32 837.141Q1763.3 843 1743.58 843L1683.42 843Q1663.7 843 1647.68 837.141Q1631.66 831.281 1620.43 821.125Q1609.2 810.969 1603.15 797.395Q1597.09 783.82 1597.09 768.586L1597.09 649.836Q1597.09 634.602 1603.15 621.027Q1609.2 607.453 1620.43 597.297Q1631.66 587.141 1647.68 581.281Q1663.7 575.422 1683.42 575.422L1743.58 575.422ZM1761.55 754.523L1783.81 754.523L1768.38 609.016L1756.27 596.906L1730.3 593L1709.4 593L1683.42 596.906L1671.51 609.016L1655.49 754.523L1678.73 754.523L1681.86 712.922L1683.81 694.953L1755.88 694.953L1757.84 712.922L1761.55 754.523ZM1747.88 616.633Q1749.24 632.453 1751 646.516Q1752.76 660.578 1754.32 676.203L1685.57 676.203L1691.43 616.633Q1696.9 616.047 1700.9 615.266Q1704.91 614.484 1710.38 613.703L1729.52 613.703L1747.88 616.633ZM2052.29 593L2005.22 593L1985.1 595.344L1972.8 607.844L1969.87 624.25L1969.87 723.469L1972.8 739.875L1985.49 752.18L2005.22 754.523L2052.29 754.523L2075.14 751.789L2070.26 730.695L2051.9 733.82L2006.39 733.82L1993.5 731.867L1990.77 720.148L1990.77 626.203L1992.72 615.461L2006.39 613.312L2051.12 613.312L2071.23 616.633L2075.14 595.734L2052.29 593ZM2054.83 575.422Q2074.55 575.422 2090.57 581.281Q2106.59 587.141 2117.82 597.297Q2129.05 607.453 2135.1 621.027Q2141.16 634.602 2141.16 649.836L2141.16 768.586Q2141.16 783.82 2135.1 797.395Q2129.05 810.969 2117.82 821.125Q2106.59 831.281 2090.57 837.141Q2074.55 843 2054.83 843L1994.67 843Q1974.95 843 1958.93 837.141Q1942.91 831.281 1931.68 821.125Q1920.45 810.969 1914.4 797.395Q1908.34 783.82 1908.34 768.586L1908.34 649.836Q1908.34 634.602 1914.4 621.027Q1920.45 607.453 1931.68 597.297Q1942.91 587.141 1958.93 581.281Q1974.95 575.422 1994.67 575.422L2054.83 575.422ZM2403.19 593L2290.3 593L2290.3 613.703L2336.39 613.703L2336.39 754.523L2357.29 754.523L2357.29 613.703L2403.19 613.703L2403.19 593ZM2366.08 575.422Q2385.8 575.422 2401.82 581.281Q2417.84 587.141 2429.07 597.297Q2440.3 607.453 2446.35 621.027Q2452.41 634.602 2452.41 649.836L2452.41 768.586Q2452.41 783.82 2446.35 797.395Q2440.3 810.969 2429.07 821.125Q2417.84 831.281 2401.82 837.141Q2385.8 843 2366.08 843L2305.92 843Q2286.2 843 2270.18 837.141Q2254.16 831.281 2242.93 821.125Q2231.7 810.969 2225.65 797.395Q2219.59 783.82 2219.59 768.586L2219.59 649.836Q2219.59 634.602 2225.65 621.027Q2231.7 607.453 2242.93 597.297Q2254.16 587.141 2270.18 581.281Q2286.2 575.422 2305.92 575.422L2366.08 575.422ZM2601.55 733.82L2601.55 754.523L2714.44 754.523L2714.44 733.82L2668.54 733.82L2668.54 613.703L2714.44 613.703L2714.44 593L2601.55 593L2601.55 613.703L2647.64 613.703L2647.64 733.82L2601.55 733.82ZM2677.33 575.422Q2697.05 575.422 2713.07 581.281Q2729.09 587.141 2740.32 597.297Q2751.55 607.453 2757.6 621.027Q2763.66 634.602 2763.66 649.836L2763.66 768.586Q2763.66 783.82 2757.6 797.395Q2751.55 810.969 2740.32 821.125Q2729.09 831.281 2713.07 837.141Q2697.05 843 2677.33 843L2617.17 843Q2597.45 843 2581.43 837.141Q2565.41 831.281 2554.18 821.125Q2542.95 810.969 2536.9 797.395Q2530.84 783.82 2530.84 768.586L2530.84 649.836Q2530.84 634.602 2536.9 621.027Q2542.95 607.453 2554.18 597.297Q2565.41 587.141 2581.43 581.281Q2597.45 575.422 2617.17 575.422L2677.33 575.422ZM2965.73 755.891L2978.81 752.18L2990.53 740.656L3028.81 596.906L3006.16 593L2970.8 732.648L2966.51 734.211L2961.23 733.039L2926.08 593L2903.23 596.906L2941.7 740.656L2953.23 752.18L2965.73 755.891ZM2988.58 575.422Q3008.3 575.422 3024.32 581.281Q3040.34 587.141 3051.57 597.297Q3062.8 607.453 3068.85 621.027Q3074.91 634.602 3074.91 649.836L3074.91 768.586Q3074.91 783.82 3068.85 797.395Q3062.8 810.969 3051.57 821.125Q3040.34 831.281 3024.32 837.141Q3008.3 843 2988.58 843L2928.42 843Q2908.7 843 2892.68 837.141Q2876.66 831.281 2865.43 821.125Q2854.2 810.969 2848.15 797.395Q2842.09 783.82 2842.09 768.586L2842.09 649.836Q2842.09 634.602 2848.15 621.027Q2854.2 607.453 2865.43 597.297Q2876.66 587.141 2892.68 581.281Q2908.7 575.422 2928.42 575.422L2988.58 575.422ZM3330.88 733.82L3252.95 733.82L3252.95 684.211L3318.19 684.211L3318.19 663.703L3252.95 663.703L3252.95 613.703L3328.15 613.703L3328.15 593L3232.64 593L3232.64 754.523L3330.88 754.523L3330.88 733.82ZM3299.83 575.422Q3319.55 575.422 3335.57 581.281Q3351.59 587.141 3362.82 597.297Q3374.05 607.453 3380.1 621.027Q3386.16 634.602 3386.16 649.836L3386.16 768.586Q3386.16 783.82 3380.1 797.395Q3374.05 810.969 3362.82 821.125Q3351.59 831.281 3335.57 837.141Q3319.55 843 3299.83 843L3239.67 843Q3219.95 843 3203.93 837.141Q3187.91 831.281 3176.68 821.125Q3165.45 810.969 3159.4 797.395Q3153.34 783.82 3153.34 768.586L3153.34 649.836Q3153.34 634.602 3159.4 621.027Q3165.45 607.453 3176.68 597.297Q3187.91 587.141 3203.93 581.281Q3219.95 575.422 3239.67 575.422L3299.83 575.422Z" fill="rgb(255,31,79)" fill-rule="nonzero" />
	<path id="" d="M992.602 282.211L918.969 282.211L988.109 158.188L980.102 141L896.508 141L896.508 161.703L962.523 161.703L893.383 285.727L899.828 302.523L992.602 302.523L992.602 282.211ZM965.453 123.422Q985.18 123.422 1001.2 129.281Q1017.21 135.141 1028.44 145.297Q1039.67 155.453 1045.73 169.027Q1051.78 182.602 1051.78 197.836L1051.78 316.586Q1051.78 331.82 1045.73 345.395Q1039.67 358.969 1028.44 369.125Q1017.21 379.281 1001.2 385.141Q985.18 391 965.453 391L905.297 391Q885.57 391 869.555 385.141Q853.539 379.281 842.309 369.125Q831.078 358.969 825.023 345.395Q818.969 331.82 818.969 316.586L818.969 197.836Q818.969 182.602 825.023 169.027Q831.078 155.453 842.309 145.297Q853.539 135.141 869.555 129.281Q885.57 123.422 905.297 123.422L965.453 123.422ZM1300.73 302.328L1300.73 257.797L1300.73 172.25L1300.73 155.844L1287.45 143.344L1267.91 141L1223.38 141L1200.53 143.734L1205.41 165.023L1223.77 161.312L1267.33 161.312L1279.05 163.852L1281.78 174.203L1281.78 219.711L1267.91 217.367L1223.38 217.367L1203.85 220.297L1191.35 232.602L1188.62 248.617L1188.62 271.469L1191.35 287.875L1203.85 300.18L1223.38 302.523L1266.16 302.523L1281.39 300.18L1300.73 302.328ZM1281.78 279.867L1266.55 281.82L1224.55 281.82L1212.25 279.867L1209.52 268.148L1209.52 251.352L1211.08 240.219L1224.55 238.266L1266.94 238.266L1281.78 239.828L1281.78 269.32L1281.78 279.867ZM1276.7 123.422Q1296.43 123.422 1312.45 129.281Q1328.46 135.141 1339.69 145.297Q1350.92 155.453 1356.98 169.027Q1363.03 182.602 1363.03 197.836L1363.03 316.586Q1363.03 331.82 1356.98 345.395Q1350.92 358.969 1339.69 369.125Q1328.46 379.281 1312.45 385.141Q1296.43 391 1276.7 391L1216.55 391Q1196.82 391 1180.8 385.141Q1164.79 379.281 1153.56 369.125Q1142.33 358.969 1136.27 345.395Q1130.22 331.82 1130.22 316.586L1130.22 197.836Q1130.22 182.602 1136.27 169.027Q1142.33 155.453 1153.56 145.297Q1164.79 135.141 1180.8 129.281Q1196.82 123.422 1216.55 123.422L1276.7 123.422ZM1587.95 123.422Q1607.68 123.422 1623.7 129.281Q1639.71 135.141 1650.94 145.297Q1662.17 155.453 1668.23 169.027Q1674.28 182.602 1674.28 197.836L1674.28 316.586Q1674.28 331.82 1668.23 345.395Q1662.17 358.969 1650.94 369.125Q1639.71 379.281 1623.7 385.141Q1607.68 391 1587.95 391L1527.8 391Q1508.07 391 1492.05 385.141Q1476.04 379.281 1464.81 369.125Q1453.58 358.969 1447.52 345.395Q1441.47 331.82 1441.47 316.586L1441.47 197.836Q1441.47 182.602 1447.52 169.027Q1453.58 155.453 1464.81 145.297Q1476.04 135.141 1492.05 129.281Q1508.07 123.422 1527.8 123.422L1587.95 123.422ZM1623.89 172.641L1621.16 156.234L1608.66 143.734L1588.73 141L1515.88 141L1515.88 302.523L1536.2 302.523L1536.2 244.906L1588.73 244.906L1608.66 242.562L1621.16 230.258L1623.89 213.461L1623.89 172.641ZM1600.26 222.25L1587.56 224.203L1536.2 224.203L1536.2 161.703L1587.56 161.703L1601.04 163.852L1602.99 175.375L1602.99 211.312L1600.26 222.25ZM1899.2 123.422Q1918.93 123.422 1934.95 129.281Q1950.96 135.141 1962.19 145.297Q1973.42 155.453 1979.48 169.027Q1985.53 182.602 1985.53 197.836L1985.53 316.586Q1985.53 331.82 1979.48 345.395Q1973.42 358.969 1962.19 369.125Q1950.96 379.281 1934.95 385.141Q1918.93 391 1899.2 391L1839.05 391Q1819.32 391 1803.3 385.141Q1787.29 379.281 1776.06 369.125Q1764.83 358.969 1758.77 345.395Q1752.72 331.82 1752.72 316.586L1752.72 197.836Q1752.72 182.602 1758.77 169.027Q1764.83 155.453 1776.06 145.297Q1787.29 135.141 1803.3 129.281Q1819.32 123.422 1839.05 123.422L1899.2 123.422ZM1909.16 254.281L1909.16 302.523L1929.87 302.523L1929.87 252.133L1923.03 234.164L1900.77 226.156L1922.25 215.805L1928.3 198.227L1928.3 176.547L1925.96 160.141L1913.07 143.734L1893.54 141L1820.69 141L1820.69 302.523L1841.59 302.523L1841.59 237.484L1892.37 237.484L1906.23 243.734L1909.16 254.281ZM1892.37 161.703L1906.23 167.758L1907.6 179.086L1907.6 199.789L1904.67 210.531L1892.37 216.586L1841.59 216.586L1841.59 161.703L1892.37 161.703ZM2210.45 123.422Q2230.18 123.422 2246.2 129.281Q2262.21 135.141 2273.44 145.297Q2284.67 155.453 2290.73 169.027Q2296.78 182.602 2296.78 197.836L2296.78 316.586Q2296.78 331.82 2290.73 345.395Q2284.67 358.969 2273.44 369.125Q2262.21 379.281 2246.2 385.141Q2230.18 391 2210.45 391L2150.3 391Q2130.57 391 2114.55 385.141Q2098.54 379.281 2087.31 369.125Q2076.08 358.969 2070.02 345.395Q2063.97 331.82 2063.97 316.586L2063.97 197.836Q2063.97 182.602 2070.02 169.027Q2076.08 155.453 2087.31 145.297Q2098.54 135.141 2114.55 129.281Q2130.57 123.422 2150.3 123.422L2210.45 123.422ZM2236.04 172.25L2233.11 155.844L2220.8 143.344L2201.08 141L2158.7 141L2139.16 143.344L2126.86 155.844L2123.93 172.25L2123.93 265.023L2126.86 281.43L2139.16 293.734L2158.7 296.273L2207.91 296.273L2230.77 293.344L2225.88 272.25L2207.52 275.375L2160.06 275.375L2147.56 273.422L2144.83 261.703L2144.83 221.469L2236.04 221.469L2236.04 172.25ZM2144.83 200.961L2144.83 174.594L2146.39 163.461L2160.06 161.312L2199.91 161.312L2213.19 163.461L2215.14 174.984L2215.14 200.961L2144.83 200.961ZM2558.81 141L2445.92 141L2445.92 161.703L2492.02 161.703L2492.02 302.523L2512.91 302.523L2512.91 161.703L2558.81 161.703L2558.81 141ZM2521.7 123.422Q2541.43 123.422 2557.45 129.281Q2573.46 135.141 2584.69 145.297Q2595.92 155.453 2601.98 169.027Q2608.03 182.602 2608.03 197.836L2608.03 316.586Q2608.03 331.82 2601.98 345.395Q2595.92 358.969 2584.69 369.125Q2573.46 379.281 2557.45 385.141Q2541.43 391 2521.7 391L2461.55 391Q2441.82 391 2425.8 385.141Q2409.79 379.281 2398.56 369.125Q2387.33 358.969 2381.27 345.395Q2375.22 331.82 2375.22 316.586L2375.22 197.836Q2375.22 182.602 2381.27 169.027Q2387.33 155.453 2398.56 145.297Q2409.79 135.141 2425.8 129.281Q2441.82 123.422 2461.55 123.422L2521.7 123.422Z" fill="rgb(251,188,4)" fill-rule="nonzero" />
</svg>
